<svg width="56" height="42" viewBox="0 0 56 42" fill="none" xmlns="http://www.w3.org/2000/svg">
<path d="M55.2803 0H0.280273V3.05642H55.2803V0Z" fill="#586E91"/>
<path d="M55.2803 38.9436H0.280273V42H55.2803V38.9436Z" fill="#586E91"/>
<path d="M55.2803 34.6546V36.3778H0.280273V34.6546C33.6734 34.6546 33.6734 7.96909 0.280273 7.96909L0.281738 5.63083H55.2817L55.2803 7.96909C21.8872 7.96909 21.8872 34.6546 55.2803 34.6546Z" fill="#586E91"/>
<path d="M55.2803 0H0.280273V3.05642H55.2803V0Z" fill="#586E91"/>
<path d="M55.2803 38.9436H0.280273V42H55.2803V38.9436Z" fill="#586E91"/>
<path d="M55.2803 34.6546V36.3778H0.280273V34.6546C33.6734 34.6546 33.6734 7.96909 0.280273 7.96909L0.281738 5.63083H55.2817L55.2803 7.96909C21.8872 7.96909 21.8872 34.6546 55.2803 34.6546Z" fill="#586E91"/>
</svg>
