<svg width="56" height="43" viewBox="0 0 56 43" fill="none" xmlns="http://www.w3.org/2000/svg">
<path d="M55.4702 0.646667H0.470215V3.70309H55.4702V0.646667Z" fill="white"/>
<path d="M55.4702 39.5903H0.470215V42.6467H55.4702V39.5903Z" fill="white"/>
<path d="M55.4702 35.3013V37.0245H0.470215V35.3013C33.8633 35.3013 33.8633 8.61576 0.470215 8.61576L0.47168 6.2775H55.4717L55.4702 8.61576C22.0771 8.61576 22.0771 35.3013 55.4702 35.3013Z" fill="white"/>
<path d="M55.4702 0.646667H0.470215V3.70309H55.4702V0.646667Z" fill="white"/>
<path d="M55.4702 39.5903H0.470215V42.6467H55.4702V39.5903Z" fill="white"/>
<path d="M55.4702 35.3013V37.0245H0.470215V35.3013C33.8633 35.3013 33.8633 8.61576 0.470215 8.61576L0.47168 6.2775H55.4717L55.4702 8.61576C22.0771 8.61576 22.0771 35.3013 55.4702 35.3013Z" fill="white"/>
</svg>
